<?xml version="1.0" standalone="no"?>
<!DOCTYPE svg PUBLIC "-//W3C//DTD SVG 20010904//EN"
 "http://www.w3.org/TR/2001/REC-SVG-20010904/DTD/svg10.dtd">
<svg version="1.0" xmlns="http://www.w3.org/2000/svg"
 width="70.000000pt" height="70.000000pt" viewBox="0 0 70.000000 70.000000"
 preserveAspectRatio="xMidYMid meet">
<metadata>
Created by potrace 1.14, written by Peter Selinger 2001-2017
</metadata>
<g transform="translate(0.000000,70.000000) scale(0.100000,-0.100000)"
fill="#000000" stroke="none">
<path d="M302 630 c-18 -17 -25 -18 -47 -8 -22 10 -31 9 -58 -7 -42 -25 -58
-41 -49 -50 4 -4 -4 -4 -18 0 -27 8 -29 8 -47 6 -14 -1 -11 -30 6 -40 17 -11
3 -59 -19 -66 -24 -8 -32 -31 -15 -45 16 -13 9 -40 -10 -40 -18 0 -26 -15 -19
-33 3 -9 14 -14 25 -12 11 2 19 -2 19 -10 0 -7 11 -32 24 -56 19 -33 22 -46
14 -57 -7 -8 -8 -16 -2 -20 22 -16 35 -53 24 -67 -17 -21 -2 -54 28 -62 31 -8
63 -5 76 7 5 5 14 6 21 3 8 -2 21 7 30 20 9 14 24 24 33 22 9 -1 22 1 27 5 10
8 41 14 59 11 5 0 4 -7 -2 -14 -13 -15 -11 -33 6 -64 25 -45 132 -23 132 26 0
7 -12 27 -27 45 l-26 31 23 3 c13 2 37 18 54 34 18 19 32 26 34 19 3 -8 10 -4
20 10 13 20 13 22 -2 31 -25 14 -21 46 7 41 14 -3 32 5 51 23 27 26 28 28 10
41 -12 9 -20 10 -22 3 -2 -5 -12 -10 -22 -10 -16 0 -17 4 -10 31 5 16 7 36 4
44 -3 7 0 16 5 20 15 9 4 24 -26 36 -13 5 -21 14 -18 20 4 6 -5 24 -21 40 -15
16 -25 29 -21 29 4 0 -1 9 -10 20 -10 11 -25 20 -34 20 -8 0 -19 3 -23 7 -10
10 -35 15 -91 17 -27 0 -55 4 -61 8 -6 4 -20 -2 -32 -12z m-102 -471 c0 -5 -7
-9 -15 -9 -9 0 -12 6 -9 15 6 15 24 11 24 -6z"/>
</g>
</svg>
